<mxfile host="app.diagrams.net" modified="2024-04-10T10:04:48.718Z" agent="Mozilla/5.0 (Windows NT 10.0; Win64; x64) AppleWebKit/537.36 (KHTML, like Gecko) Chrome/120.0.0.0 YaBrowser/24.1.0.0 Safari/537.36" version="24.2.3" etag="aOEQH05J1bEjVJe0qMP7" type="github">
  <diagram name="Страница — 1" id="mIcctWlzVRVlTR5fHBaI">
    <mxGraphModel>
      <root>
        <mxCell id="0" />
        <mxCell id="1" parent="0" />
      </root>
    </mxGraphModel>
  </diagram>
</mxfile>
